<?xml version="1.0" encoding="iso-8859-1"?>
<!-- Generator: Adobe Illustrator 21.1.0, SVG Export Plug-In . SVG Version: 6.00 Build 0)  -->
<svg version="1.1" id="OL__x2B__Art" xmlns="http://www.w3.org/2000/svg" xmlns:xlink="http://www.w3.org/1999/xlink" x="0px"
	 y="0px" width="122.747px" height="34.016px" viewBox="0 0 122.747 34.016" enable-background="new 0 0 122.747 34.016"
	 xml:space="preserve">
<g>
	<g>
		<g>
			<g>
				<path d="M114.643,0H8.108c-0.312,0-0.62,0-0.931,0.002c-0.26,0.002-0.519,0.007-0.781,0.011C5.83,0.027,5.257,0.061,4.692,0.163
					c-0.569,0.1-1.098,0.27-1.616,0.533c-0.509,0.261-0.974,0.6-1.376,1.002C1.292,2.101,0.955,2.568,0.697,3.077
					C0.432,3.594,0.265,4.126,0.165,4.695C0.063,5.258,0.027,5.828,0.013,6.398C0.005,6.659,0.004,6.92,0,7.181
					c0,0.308,0,0.617,0,0.928v17.798c0,0.314,0,0.621,0,0.93c0.004,0.264,0.005,0.52,0.013,0.784c0.015,0.57,0.05,1.139,0.152,1.702
					c0.099,0.57,0.267,1.104,0.531,1.619c0.258,0.507,0.595,0.973,1.002,1.373c0.402,0.406,0.867,0.744,1.376,1.002
					c0.518,0.266,1.047,0.434,1.616,0.536c0.565,0.101,1.138,0.135,1.704,0.15c0.263,0.006,0.521,0.009,0.781,0.009
					c0.311,0.002,0.619,0.002,0.931,0.002h106.535c0.306,0,0.616,0,0.922-0.002c0.259,0,0.525-0.003,0.784-0.009
					c0.57-0.016,1.141-0.049,1.701-0.15c0.57-0.103,1.099-0.271,1.623-0.536c0.508-0.258,0.973-0.596,1.375-1.002
					c0.405-0.399,0.742-0.866,1.005-1.373c0.261-0.516,0.43-1.05,0.526-1.619c0.105-0.563,0.138-1.133,0.158-1.702
					c0.003-0.264,0.003-0.52,0.003-0.784c0.007-0.309,0.007-0.616,0.007-0.93V8.109c0-0.311,0-0.62-0.007-0.928
					c0-0.261,0-0.522-0.003-0.783c-0.02-0.57-0.053-1.139-0.158-1.702c-0.096-0.57-0.266-1.101-0.526-1.619
					c-0.262-0.509-0.6-0.976-1.005-1.379c-0.402-0.403-0.867-0.742-1.375-1.002c-0.523-0.263-1.053-0.434-1.623-0.533
					c-0.56-0.101-1.131-0.136-1.701-0.15c-0.259-0.004-0.525-0.009-0.784-0.011C115.259,0,114.949,0,114.643,0L114.643,0z"/>
				<path fill="#FFFFFF" d="M7.181,33.272c-0.259,0-0.512-0.003-0.769-0.009c-0.475-0.013-1.039-0.04-1.59-0.139
					c-0.519-0.094-0.98-0.247-1.409-0.466c-0.443-0.225-0.842-0.516-1.188-0.865c-0.352-0.345-0.642-0.742-0.868-1.188
					c-0.22-0.429-0.371-0.89-0.462-1.409c-0.104-0.572-0.13-1.153-0.142-1.594c-0.005-0.179-0.012-0.776-0.012-0.776V7.181
					c0,0,0.007-0.588,0.012-0.761c0.011-0.446,0.038-1.026,0.141-1.592c0.091-0.522,0.242-0.982,0.462-1.413
					C1.584,2.969,1.874,2.57,2.221,2.226c0.352-0.352,0.752-0.644,1.193-0.87C3.85,1.135,4.311,0.983,4.82,0.894
					c0.573-0.103,1.153-0.128,1.595-0.14l0.767-0.01h108.379l0.776,0.011c0.436,0.011,1.016,0.037,1.58,0.138
					c0.512,0.09,0.976,0.242,1.421,0.466c0.436,0.223,0.835,0.515,1.183,0.864c0.348,0.345,0.639,0.747,0.87,1.194
					c0.219,0.435,0.369,0.895,0.455,1.402c0.099,0.536,0.13,1.087,0.148,1.605c0.002,0.241,0.002,0.5,0.002,0.757
					c0.007,0.319,0.007,0.622,0.007,0.928v17.798c0,0.309,0,0.61-0.007,0.914c0,0.277,0,0.53-0.003,0.791
					c-0.017,0.501-0.048,1.051-0.145,1.576c-0.088,0.522-0.238,0.982-0.459,1.42c-0.229,0.442-0.521,0.841-0.864,1.178
					c-0.351,0.355-0.75,0.645-1.19,0.87c-0.441,0.224-0.891,0.373-1.418,0.468c-0.545,0.099-1.109,0.125-1.59,0.139
					c-0.249,0.006-0.51,0.009-0.763,0.009l-0.922,0.002L7.181,33.272z"/>
			</g>
		</g>
	</g>
	<linearGradient id="SVGID_1_" gradientUnits="userSpaceOnUse" x1="17.169" y1="7.5491" x2="17.169" y2="26.4663">
		<stop  offset="0" style="stop-color:#FF61AD"/>
		<stop  offset="1" style="stop-color:#FF2616"/>
	</linearGradient>
	<path fill-rule="evenodd" clip-rule="evenodd" fill="url(#SVGID_1_)" d="M17.169,26.466c-0.548,0-3.749-1.73-6.745-4.563
		c-2.377-2.248-4.097-5.553-4.097-8.529c0-2.694,2.26-5.825,5.909-5.825c3.556,0,4.338,1.914,4.934,1.914
		c0.476,0,1.421-1.914,4.934-1.914c3.856,0,5.909,3.442,5.909,5.825c0,2.975-1.591,6.159-4.097,8.529
		C20.996,24.663,17.717,26.466,17.169,26.466z"/>
	<g id="XMLID_13_">
		<g id="XMLID_14_">
			<g id="XMLID_16_">
				<g>
					<path d="M34.516,12.547h-0.744l-1.365-5.064h0.817l0.93,3.878h0.049l1.056-3.878h0.73l1.063,3.878h0.049l0.926-3.878h0.818
						l-1.369,5.064h-0.741L35.65,8.83h-0.049L34.516,12.547z"/>
					<path d="M39.261,10.634c0-1.232,0.688-1.983,1.804-1.983c1.113,0,1.801,0.751,1.801,1.983c0,1.239-0.685,1.986-1.801,1.986
						C39.946,12.621,39.261,11.873,39.261,10.634z M42.09,10.634c0-0.828-0.372-1.312-1.025-1.312c-0.656,0-1.024,0.484-1.024,1.312
						c0,0.835,0.368,1.316,1.024,1.316C41.718,11.95,42.09,11.466,42.09,10.634z"/>
					<path d="M43.887,8.725h0.727v0.586h0.056c0.109-0.375,0.534-0.649,1.032-0.649c0.112,0,0.256,0.011,0.337,0.032v0.744
						c-0.063-0.021-0.288-0.046-0.421-0.046c-0.572,0-0.976,0.362-0.976,0.898v2.257h-0.755V8.725z"/>
					<path d="M49.243,8.725h0.891l-1.572,1.639l1.678,2.183h-0.927l-1.312-1.685l-0.333,0.316v1.369h-0.754V7.233h0.754v3.085h0.06
						L49.243,8.725z"/>
					<path d="M52.295,8.651c0.86,0,1.421,0.4,1.495,1.074h-0.723c-0.07-0.281-0.344-0.459-0.772-0.459
						c-0.421,0-0.741,0.2-0.741,0.498c0,0.228,0.193,0.372,0.607,0.467l0.635,0.147c0.726,0.168,1.067,0.481,1.067,1.042
						c0,0.719-0.67,1.2-1.583,1.2c-0.909,0-1.502-0.411-1.569-1.088h0.755c0.095,0.295,0.375,0.477,0.832,0.477
						c0.47,0,0.804-0.21,0.804-0.516c0-0.228-0.179-0.375-0.562-0.467l-0.667-0.154c-0.726-0.172-1.063-0.499-1.063-1.067
						C50.811,9.128,51.432,8.651,52.295,8.651z"/>
					<path d="M60.892,12.547h-0.783L59.32,9.732h-0.061l-0.786,2.814h-0.776l-1.053-3.822h0.765l0.685,2.917h0.056l0.786-2.917
						h0.723l0.786,2.917h0.06l0.681-2.917h0.755L60.892,12.547z"/>
					<path d="M62.74,7.595c0-0.263,0.207-0.463,0.488-0.463c0.28,0,0.487,0.2,0.487,0.463c0,0.26-0.207,0.46-0.487,0.46
						C62.947,8.055,62.74,7.855,62.74,7.595z M62.852,8.725h0.751v3.822h-0.751V8.725z"/>
					<path d="M65.844,7.774v0.969h0.829v0.635h-0.829v1.965c0,0.4,0.165,0.575,0.541,0.575c0.115,0,0.183-0.007,0.288-0.018v0.628
						c-0.123,0.021-0.264,0.039-0.411,0.039c-0.839,0-1.172-0.295-1.172-1.032V9.378h-0.607V8.743h0.607V7.774H65.844z"/>
					<path d="M67.709,7.233h0.747v2.106h0.06c0.187-0.428,0.59-0.685,1.165-0.685c0.814,0,1.316,0.516,1.316,1.425v2.467h-0.755
						v-2.281c0-0.611-0.284-0.919-0.817-0.919c-0.618,0-0.962,0.39-0.962,0.969v2.232h-0.754V7.233z"/>
				</g>
			</g>
		</g>
	</g>
	<g id="XMLID_4_">
		<g>
			<path d="M39.217,23.656h-4.028l-0.967,2.856h-1.707l3.816-10.569h1.772l3.816,10.569h-1.736L39.217,23.656z M35.606,22.338h3.193
				l-1.575-4.636h-0.044L35.606,22.338z"/>
			<path d="M50.152,22.66c0,2.395-1.282,3.933-3.215,3.933c-1.099,0-1.97-0.491-2.424-1.348h-0.037v3.816h-1.582V18.808h1.531v1.282
				h0.029c0.439-0.828,1.377-1.362,2.454-1.362C48.863,18.727,50.152,20.272,50.152,22.66z M48.526,22.66
				c0-1.56-0.806-2.585-2.036-2.585c-1.208,0-2.021,1.047-2.021,2.585c0,1.553,0.813,2.593,2.021,2.593
				C47.72,25.253,48.526,24.235,48.526,22.66z"/>
			<path d="M58.626,22.66c0,2.395-1.282,3.933-3.215,3.933c-1.099,0-1.97-0.491-2.424-1.348H52.95v3.816h-1.582V18.808h1.531v1.282
				h0.029c0.439-0.828,1.377-1.362,2.454-1.362C57.337,18.727,58.626,20.272,58.626,22.66z M57,22.66
				c0-1.56-0.806-2.585-2.036-2.585c-1.208,0-2.021,1.047-2.021,2.585c0,1.553,0.813,2.593,2.021,2.593
				C56.194,25.253,57,24.235,57,22.66z"/>
			<path d="M59.9,15.944h1.582v10.569H59.9V15.944z"/>
			<path d="M69.714,24.25c-0.212,1.399-1.574,2.358-3.317,2.358c-2.241,0-3.633-1.501-3.633-3.911c0-2.417,1.399-3.984,3.567-3.984
				c2.131,0,3.471,1.465,3.471,3.801v0.542h-5.441v0.095c0,1.318,0.828,2.183,2.072,2.183c0.879,0,1.568-0.417,1.78-1.084H69.714z
				 M64.369,21.95h3.852c-0.036-1.179-0.791-1.956-1.889-1.956C65.24,19.994,64.449,20.785,64.369,21.95z"/>
			<path d="M81.324,26.513v-4.68h-5.428v4.68h-1.641V15.944h1.641v4.468h5.428v-4.468h1.641v10.569H81.324z"/>
			<path d="M91.322,24.25c-0.213,1.399-1.575,2.358-3.318,2.358c-2.241,0-3.633-1.501-3.633-3.911c0-2.417,1.398-3.984,3.566-3.984
				c2.132,0,3.473,1.465,3.473,3.801v0.542h-5.442v0.095c0,1.318,0.827,2.183,2.073,2.183c0.879,0,1.566-0.417,1.779-1.084H91.322z
				 M85.974,21.95h3.854c-0.037-1.179-0.791-1.956-1.891-1.956C86.846,19.994,86.055,20.785,85.974,21.95z"/>
			<path d="M92.324,24.323c0-1.348,1.033-2.161,2.864-2.271l2.109-0.117v-0.586c0-0.857-0.563-1.34-1.523-1.34
				c-0.879,0-1.494,0.417-1.618,1.084h-1.48c0.045-1.392,1.341-2.38,3.143-2.38c1.838,0,3.055,1.003,3.055,2.52v5.281h-1.517v-1.267
				H97.32c-0.447,0.857-1.422,1.399-2.432,1.399C93.378,26.645,92.324,25.707,92.324,24.323z M97.297,23.627v-0.593L95.4,23.151
				c-0.944,0.059-1.479,0.469-1.479,1.128c0,0.674,0.557,1.113,1.406,1.113C96.433,25.392,97.297,24.63,97.297,23.627z"/>
			<path d="M100.46,15.944h1.582v10.569h-1.582V15.944z"/>
			<path d="M105.72,16.984v1.824h1.465v1.252h-1.465v4.248c0,0.659,0.293,0.967,0.938,0.967c0.16,0,0.417-0.022,0.52-0.037v1.245
				c-0.176,0.044-0.527,0.073-0.879,0.073c-1.561,0-2.168-0.586-2.168-2.08V20.06h-1.121v-1.252h1.121v-1.824H105.72z"/>
			<path d="M108.541,15.944h1.566v4.175h0.037c0.461-0.923,1.26-1.399,2.439-1.399c1.691,0,2.702,1.128,2.702,2.871v4.922h-1.589
				v-4.607c0-1.135-0.572-1.824-1.686-1.824c-1.172,0-1.889,0.806-1.889,2.029v4.402h-1.582V15.944z"/>
		</g>
	</g>
</g>
<g>
</g>
<g>
</g>
<g>
</g>
<g>
</g>
<g>
</g>
<g>
</g>
</svg>
