<?xml version="1.0" encoding="utf-8"?>
<!-- Generator: Adobe Illustrator 20.1.0, SVG Export Plug-In . SVG Version: 6.00 Build 0)  -->
<svg version="1.1" id="Layer_4" xmlns="http://www.w3.org/2000/svg" xmlns:xlink="http://www.w3.org/1999/xlink" x="0px" y="0px"
	 viewBox="0 0 20 14.6" style="enable-background:new 0 0 20 14.6;" xml:space="preserve">
<style type="text/css">
	.st0{fill:#E69024;}
	.st1{fill:#FFFFFF;}
</style>
<path class="st0" d="M12.4,6.1c0.1-0.2,0.2-0.7,0.4-1.5C12.9,4.4,13,4,13.2,3.3c0.2-0.6,0.4-1.2,0.6-1.5c-0.4,0.3-0.8,0.6-1.2,1.1
	c-1.5,1.6-3.2,3.6-3.8,4.6C9,7.4,9.4,6.9,10.9,6.4C11.9,6.1,12.4,6.1,12.4,6.1L12.4,6.1z M12.1,7.1c-4.7,0-6.7,7.5-10,7.5
	c-0.7,0-1.3-0.3-1.7-1C0.1,13.2,0,12.7,0,12.2C0,10.8,0.6,9.1,1.9,7C3,5.2,4.2,3.8,5.4,2.7c1.1-0.9,2-1.4,2.7-1.4
	c0.4,0,0.7,0.2,1,0.5C9.3,2,9.4,2.3,9.4,2.6c0,0.6-0.2,1.3-0.6,2.1C8.4,5.4,8,6,7.4,6.6C7.1,6.9,6.8,7.1,6.6,7.1
	C6.5,7.1,6.3,7,6.2,6.9C6.1,6.8,6.1,6.7,6.1,6.6c0-0.2,0.2-0.5,0.6-0.8c0.5-0.4,1-0.9,1.3-1.3c0.5-0.7,0.7-1.3,0.7-1.8
	c0-0.2,0-0.3-0.1-0.4C8.5,2.1,8.3,2.1,8.2,2.1c-0.3,0-0.8,0.3-1.5,0.8C6,3.4,5.2,4.2,4.4,5.2C3.4,6.4,2.6,7.7,2,8.9
	c-0.6,1.3-0.8,2.3-0.8,3.2c0,0.4,0.1,0.8,0.4,1.1c0.3,0.3,0.6,0.5,1,0.5c1.5-0.1,3.3-3.5,3.9-4.3c5.7-7.9,6.1-7.9,7-8.7
	C14,0.2,14.3,0,14.6,0c0.2,0,0.3,0.1,0.4,0.2c0.1,0.1,0.2,0.3,0.2,0.4c0,0.2-0.1,0.5-0.3,0.9C14.6,2.3,14.3,3.2,14,4
	c-0.2,0.8-0.4,1.4-0.5,1.8c0.1,0,0.2,0,0.2,0c0.2,0,0.3,0,0.5,0c0.4,0,0.5,0.1,0.5,0.4c0,0.1,0,0.2-0.1,0.4
	c-0.1,0.1-0.2,0.2-0.3,0.2c0,0-0.1,0-0.3,0c-0.4,0-0.6,0-0.8,0.1c-0.1,0.2-0.2,1.9-0.5,2C12,9.6,12.1,7.3,12.1,7.1L12.1,7.1z"/>
<g>
	<path class="st1" d="M7.5,12.3c0.2,0,0.4,0.1,0.5,0.2c0.1,0.1,0.2,0.3,0.2,0.5c0,0.2-0.1,0.4-0.2,0.5c-0.1,0.1-0.3,0.2-0.5,0.2
		c-0.2,0-0.4-0.1-0.5-0.2c-0.1-0.1-0.2-0.3-0.2-0.5c0-0.2,0.1-0.4,0.2-0.5C7.1,12.3,7.2,12.3,7.5,12.3L7.5,12.3z"/>
	<path class="st1" d="M12,10.3l-0.5,0.5c-0.3-0.4-0.7-0.5-1.2-0.5c-0.4,0-0.7,0.1-1,0.4C9.1,10.9,9,11.2,9,11.6c0,0.4,0.1,0.7,0.4,1
		c0.3,0.3,0.6,0.4,1,0.4c0.3,0,0.5-0.1,0.7-0.2c0.2-0.1,0.3-0.3,0.4-0.5h-1.1v-0.7h2l0,0.2c0,0.3-0.1,0.7-0.3,1
		c-0.2,0.3-0.4,0.5-0.7,0.7c-0.3,0.2-0.6,0.2-1,0.2c-0.4,0-0.8-0.1-1.1-0.3C9,13.2,8.7,13,8.5,12.6c-0.2-0.3-0.3-0.7-0.3-1.1
		c0-0.5,0.2-1,0.5-1.4c0.4-0.5,0.9-0.7,1.6-0.7c0.3,0,0.7,0.1,1,0.2C11.5,9.8,11.8,10,12,10.3L12,10.3z"/>
	<path class="st1" d="M14.6,9.5c0.6,0,1,0.2,1.4,0.6c0.4,0.4,0.6,0.9,0.6,1.5c0,0.6-0.2,1.1-0.6,1.5c-0.4,0.4-0.9,0.6-1.4,0.6
		c-0.6,0-1.1-0.2-1.5-0.6c-0.4-0.4-0.6-0.9-0.6-1.5c0-0.4,0.1-0.7,0.3-1c0.2-0.3,0.4-0.6,0.7-0.8C13.9,9.6,14.2,9.5,14.6,9.5
		L14.6,9.5z M14.6,10.3c-0.4,0-0.7,0.1-0.9,0.4c-0.2,0.3-0.4,0.6-0.4,1c0,0.4,0.2,0.8,0.5,1c0.2,0.2,0.5,0.3,0.8,0.3
		c0.4,0,0.7-0.1,0.9-0.4c0.2-0.3,0.4-0.6,0.4-1c0-0.4-0.1-0.7-0.4-1C15.2,10.4,14.9,10.3,14.6,10.3L14.6,10.3z"/>
	<polygon class="st1" points="16.5,9.6 17.2,9.6 18.2,12.4 19.2,9.6 20,9.6 18.6,13.6 17.9,13.6 16.5,9.6 	"/>
</g>
</svg>
