<svg width="168" height="50" viewBox="0 0 168 50" fill="none" xmlns="http://www.w3.org/2000/svg">
<g filter="url(#filter0_dddd)">
<path fill-rule="evenodd" clip-rule="evenodd" d="M5 10C5 7.79086 6.79086 6 9 6H159C161.209 6 163 7.79086 163 10V38C163 40.2091 161.209 42 159 42H9C6.79086 42 5 40.2091 5 38V10Z" fill="black"/>
<path d="M57.046 29.224C56.514 29.224 56.0053 29.1213 55.52 28.916C55.0347 28.7013 54.6053 28.3887 54.232 27.978C53.868 27.5673 53.5973 27.0587 53.42 26.452L54.876 25.864C55.0253 26.4053 55.2867 26.858 55.66 27.222C56.0333 27.586 56.5 27.768 57.06 27.768C57.3773 27.768 57.6713 27.712 57.942 27.6C58.222 27.488 58.446 27.3247 58.614 27.11C58.782 26.886 58.866 26.6153 58.866 26.298C58.866 25.8593 58.7027 25.5093 58.376 25.248C58.0493 24.9773 57.5267 24.7113 56.808 24.45L56.178 24.226C55.814 24.0953 55.4453 23.918 55.072 23.694C54.708 23.4607 54.4047 23.1667 54.162 22.812C53.9193 22.448 53.798 22.0047 53.798 21.482C53.798 20.9873 53.9287 20.5347 54.19 20.124C54.4607 19.704 54.8293 19.3727 55.296 19.13C55.772 18.878 56.3227 18.752 56.948 18.752C57.592 18.752 58.1287 18.8687 58.558 19.102C58.9967 19.326 59.3373 19.6013 59.58 19.928C59.832 20.2453 60.0047 20.544 60.098 20.824L58.712 21.412C58.656 21.2253 58.5533 21.0387 58.404 20.852C58.264 20.656 58.0727 20.4973 57.83 20.376C57.5967 20.2453 57.3073 20.18 56.962 20.18C56.514 20.18 56.1267 20.3013 55.8 20.544C55.4827 20.7773 55.324 21.0853 55.324 21.468C55.324 21.832 55.4733 22.126 55.772 22.35C56.0707 22.574 56.5047 22.784 57.074 22.98L57.718 23.204C58.1473 23.344 58.5673 23.5353 58.978 23.778C59.398 24.0207 59.7387 24.3427 60 24.744C60.2707 25.136 60.406 25.6447 60.406 26.27C60.406 26.7833 60.3033 27.2267 60.098 27.6C59.902 27.9733 59.636 28.2813 59.3 28.524C58.9733 28.7573 58.6093 28.93 58.208 29.042C57.816 29.1633 57.4287 29.224 57.046 29.224ZM64.4247 29.224C63.9114 29.224 63.4541 29.126 63.0527 28.93C62.6514 28.7247 62.3387 28.44 62.1147 28.076C61.8907 27.712 61.7787 27.2967 61.7787 26.83C61.7787 26.326 61.9094 25.8967 62.1707 25.542C62.4414 25.178 62.8007 24.9027 63.2487 24.716C63.6967 24.5293 64.1914 24.436 64.7327 24.436C65.1807 24.436 65.5727 24.478 65.9087 24.562C66.2541 24.646 66.5154 24.7347 66.6927 24.828V24.45C66.6927 23.9833 66.5247 23.61 66.1887 23.33C65.8527 23.05 65.4187 22.91 64.8867 22.91C64.5227 22.91 64.1774 22.994 63.8507 23.162C63.5241 23.3207 63.2627 23.54 63.0667 23.82L62.0307 23.022C62.3387 22.5927 62.7447 22.2567 63.2487 22.014C63.7621 21.762 64.3221 21.636 64.9287 21.636C65.9647 21.636 66.7627 21.8927 67.3227 22.406C67.8827 22.91 68.1627 23.6193 68.1627 24.534V29H66.6927V28.118H66.6087C66.4221 28.4073 66.1421 28.664 65.7687 28.888C65.3954 29.112 64.9474 29.224 64.4247 29.224ZM64.6907 27.992C65.0827 27.992 65.4281 27.8987 65.7267 27.712C66.0254 27.5253 66.2587 27.2827 66.4267 26.984C66.6041 26.676 66.6927 26.3447 66.6927 25.99C66.4781 25.8687 66.2261 25.7707 65.9367 25.696C65.6474 25.612 65.3394 25.57 65.0127 25.57C64.3967 25.57 63.9581 25.696 63.6967 25.948C63.4354 26.1907 63.3047 26.4893 63.3047 26.844C63.3047 27.18 63.4307 27.4553 63.6827 27.67C63.9347 27.8847 64.2707 27.992 64.6907 27.992ZM72.1106 29L69.1566 21.86H70.8366L72.8386 27.054H72.9086L74.9526 21.86H76.6046L73.6226 29H72.1106ZM80.8901 29.224C80.1901 29.224 79.5648 29.0607 79.0141 28.734C78.4634 28.4073 78.0294 27.9593 77.7121 27.39C77.4041 26.8207 77.2501 26.172 77.2501 25.444C77.2501 24.7627 77.3994 24.1327 77.6981 23.554C77.9968 22.9753 78.4121 22.5133 78.9441 22.168C79.4854 21.8133 80.1061 21.636 80.8061 21.636C81.5434 21.636 82.1688 21.7947 82.6821 22.112C83.2048 22.4293 83.6014 22.8633 83.8721 23.414C84.1428 23.9647 84.2781 24.5853 84.2781 25.276C84.2781 25.3787 84.2734 25.472 84.2641 25.556C84.2641 25.64 84.2594 25.7053 84.2501 25.752H78.7341C78.8088 26.4613 79.0561 26.9933 79.4761 27.348C79.9054 27.7027 80.3908 27.88 80.9321 27.88C81.4174 27.88 81.8188 27.7727 82.1361 27.558C82.4534 27.334 82.7054 27.0587 82.8921 26.732L84.1381 27.334C83.8301 27.894 83.4101 28.3513 82.8781 28.706C82.3461 29.0513 81.6834 29.224 80.8901 29.224ZM80.8201 22.924C80.3161 22.924 79.8868 23.078 79.5321 23.386C79.1774 23.694 78.9394 24.1047 78.8181 24.618H82.7801C82.7614 24.3753 82.6821 24.1233 82.5421 23.862C82.4021 23.6007 82.1874 23.3813 81.8981 23.204C81.6181 23.0173 81.2588 22.924 80.8201 22.924ZM90.2044 26.928V23.176H88.9584V21.86H90.2044V19.844H91.7164V21.86H93.4664V23.176H91.7164V26.606C91.7164 26.9607 91.7864 27.2313 91.9264 27.418C92.0757 27.6047 92.3231 27.698 92.6684 27.698C92.8457 27.698 92.9951 27.6747 93.1164 27.628C93.2471 27.5813 93.3777 27.516 93.5084 27.432V28.902C93.3497 28.9673 93.1817 29.0187 93.0044 29.056C92.8271 29.0933 92.6171 29.112 92.3744 29.112C91.7117 29.112 91.1844 28.9207 90.7924 28.538C90.4004 28.146 90.2044 27.6093 90.2044 26.928ZM98.2537 29.224C97.5164 29.224 96.8677 29.056 96.3077 28.72C95.7477 28.384 95.3091 27.9313 94.9917 27.362C94.6744 26.7927 94.5157 26.1487 94.5157 25.43C94.5157 24.7207 94.6744 24.0813 94.9917 23.512C95.3091 22.9333 95.7477 22.476 96.3077 22.14C96.8677 21.804 97.5164 21.636 98.2537 21.636C98.9817 21.636 99.6257 21.804 100.186 22.14C100.746 22.476 101.184 22.9333 101.502 23.512C101.819 24.0813 101.978 24.7207 101.978 25.43C101.978 26.1487 101.819 26.7927 101.502 27.362C101.184 27.9313 100.746 28.384 100.186 28.72C99.6257 29.056 98.9817 29.224 98.2537 29.224ZM98.2537 27.838C98.6457 27.838 99.0097 27.7447 99.3457 27.558C99.6817 27.362 99.9524 27.0867 100.158 26.732C100.372 26.368 100.48 25.934 100.48 25.43C100.48 24.926 100.372 24.4967 100.158 24.142C99.9524 23.778 99.6817 23.5027 99.3457 23.316C99.0097 23.12 98.6457 23.022 98.2537 23.022C97.8617 23.022 97.4931 23.12 97.1477 23.316C96.8117 23.5027 96.5364 23.778 96.3217 24.142C96.1164 24.4967 96.0137 24.926 96.0137 25.43C96.0137 25.934 96.1164 26.368 96.3217 26.732C96.5364 27.0867 96.8117 27.362 97.1477 27.558C97.4931 27.7447 97.8617 27.838 98.2537 27.838ZM107.124 32.024V21.86H108.538V22.826H108.622C108.809 22.518 109.098 22.2427 109.49 22C109.891 21.7573 110.367 21.636 110.918 21.636C111.571 21.636 112.155 21.7993 112.668 22.126C113.181 22.4527 113.587 22.9007 113.886 23.47C114.194 24.0393 114.348 24.6927 114.348 25.43C114.348 26.1673 114.194 26.8253 113.886 27.404C113.587 27.9733 113.181 28.4213 112.668 28.748C112.155 29.0653 111.571 29.224 110.918 29.224C110.367 29.224 109.891 29.1073 109.49 28.874C109.098 28.6313 108.809 28.356 108.622 28.048H108.538L108.622 29.042V32.024H107.124ZM110.694 27.838C111.067 27.838 111.417 27.74 111.744 27.544C112.071 27.348 112.337 27.0727 112.542 26.718C112.747 26.354 112.85 25.9247 112.85 25.43C112.85 24.9353 112.747 24.5107 112.542 24.156C112.337 23.792 112.071 23.512 111.744 23.316C111.417 23.12 111.067 23.022 110.694 23.022C110.321 23.022 109.971 23.12 109.644 23.316C109.317 23.512 109.051 23.792 108.846 24.156C108.641 24.5107 108.538 24.9353 108.538 25.43C108.538 25.9247 108.641 26.354 108.846 26.718C109.051 27.0727 109.317 27.348 109.644 27.544C109.971 27.74 110.321 27.838 110.694 27.838ZM115.851 29V18.976H117.363V21.72L117.279 22.84H117.363C117.559 22.4947 117.857 22.21 118.259 21.986C118.669 21.7527 119.122 21.636 119.617 21.636C120.503 21.636 121.171 21.902 121.619 22.434C122.067 22.9567 122.291 23.6427 122.291 24.492V29H120.793V24.688C120.793 24.1093 120.639 23.6893 120.331 23.428C120.032 23.1573 119.663 23.022 119.225 23.022C118.861 23.022 118.539 23.1247 118.259 23.33C117.979 23.5353 117.759 23.806 117.601 24.142C117.442 24.4687 117.363 24.8187 117.363 25.192V29H115.851ZM127.623 29.224C126.886 29.224 126.237 29.056 125.677 28.72C125.117 28.384 124.678 27.9313 124.361 27.362C124.044 26.7927 123.885 26.1487 123.885 25.43C123.885 24.7207 124.044 24.0813 124.361 23.512C124.678 22.9333 125.117 22.476 125.677 22.14C126.237 21.804 126.886 21.636 127.623 21.636C128.351 21.636 128.995 21.804 129.555 22.14C130.115 22.476 130.554 22.9333 130.871 23.512C131.188 24.0813 131.347 24.7207 131.347 25.43C131.347 26.1487 131.188 26.7927 130.871 27.362C130.554 27.9313 130.115 28.384 129.555 28.72C128.995 29.056 128.351 29.224 127.623 29.224ZM127.623 27.838C128.015 27.838 128.379 27.7447 128.715 27.558C129.051 27.362 129.322 27.0867 129.527 26.732C129.742 26.368 129.849 25.934 129.849 25.43C129.849 24.926 129.742 24.4967 129.527 24.142C129.322 23.778 129.051 23.5027 128.715 23.316C128.379 23.12 128.015 23.022 127.623 23.022C127.231 23.022 126.862 23.12 126.517 23.316C126.181 23.5027 125.906 23.778 125.691 24.142C125.486 24.4967 125.383 24.926 125.383 25.43C125.383 25.934 125.486 26.368 125.691 26.732C125.906 27.0867 126.181 27.362 126.517 27.558C126.862 27.7447 127.231 27.838 127.623 27.838ZM132.853 29V21.86H134.281V22.84H134.365C134.57 22.4947 134.873 22.21 135.275 21.986C135.685 21.7527 136.133 21.636 136.619 21.636C137.496 21.636 138.154 21.8973 138.593 22.42C139.031 22.9427 139.251 23.6333 139.251 24.492V29H137.753V24.688C137.753 24.1093 137.608 23.6893 137.319 23.428C137.029 23.1573 136.651 23.022 136.185 23.022C135.821 23.022 135.503 23.1247 135.233 23.33C134.962 23.526 134.747 23.7873 134.589 24.114C134.439 24.4407 134.365 24.7907 134.365 25.164V29H132.853ZM144.486 29.224C143.786 29.224 143.16 29.0607 142.61 28.734C142.059 28.4073 141.625 27.9593 141.308 27.39C141 26.8207 140.846 26.172 140.846 25.444C140.846 24.7627 140.995 24.1327 141.294 23.554C141.592 22.9753 142.008 22.5133 142.54 22.168C143.081 21.8133 143.702 21.636 144.402 21.636C145.139 21.636 145.764 21.7947 146.278 22.112C146.8 22.4293 147.197 22.8633 147.468 23.414C147.738 23.9647 147.874 24.5853 147.874 25.276C147.874 25.3787 147.869 25.472 147.86 25.556C147.86 25.64 147.855 25.7053 147.846 25.752H142.33C142.404 26.4613 142.652 26.9933 143.072 27.348C143.501 27.7027 143.986 27.88 144.528 27.88C145.013 27.88 145.414 27.7727 145.732 27.558C146.049 27.334 146.301 27.0587 146.488 26.732L147.734 27.334C147.426 27.894 147.006 28.3513 146.474 28.706C145.942 29.0513 145.279 29.224 144.486 29.224ZM144.416 22.924C143.912 22.924 143.482 23.078 143.128 23.386C142.773 23.694 142.535 24.1047 142.414 24.618H146.376C146.357 24.3753 146.278 24.1233 146.138 23.862C145.998 23.6007 145.783 23.3813 145.494 23.204C145.214 23.0173 144.854 22.924 144.416 22.924Z" fill="white"/>
<path fill-rule="evenodd" clip-rule="evenodd" d="M36.1865 24.1727C36.1865 23.6995 36.1463 23.2432 36.0706 22.8064H29.7268V25.3944H33.3602C33.2042 26.2379 32.7324 26.9557 32.0167 27.4363V29.1172H34.1852C35.4549 27.9468 36.1865 26.2175 36.1865 24.1727" fill="#4285F4"/>
<path fill-rule="evenodd" clip-rule="evenodd" d="M29.7268 30.7392C31.5421 30.7392 33.0706 30.1437 34.1852 29.1171L32.0167 27.4363C31.4132 27.8423 30.6359 28.0793 29.7268 28.0793C27.9722 28.0793 26.483 26.8978 25.9504 25.3057H23.7166V27.0369C24.8237 29.2319 27.0987 30.7392 29.7268 30.7392" fill="#34A853"/>
<path fill-rule="evenodd" clip-rule="evenodd" d="M25.9505 25.3055C25.8141 24.8995 25.7393 24.4665 25.7393 24.0195C25.7393 23.5724 25.8141 23.1394 25.9505 22.7334V21.0022H23.7166C23.2588 21.9093 23 22.9341 23 24.0195C23 25.1049 23.2588 26.1297 23.7166 27.0367L25.9505 25.3055Z" fill="#FABB05"/>
<path fill-rule="evenodd" clip-rule="evenodd" d="M29.7268 19.9599C30.7181 19.9599 31.6066 20.3005 32.3073 20.9678V20.9687L34.2273 19.0509C33.0613 17.9664 31.5412 17.3 29.7268 17.3C27.0987 17.3 24.8237 18.8073 23.7166 21.0023L25.9504 22.7335C26.483 21.1414 27.9722 19.9599 29.7268 19.9599" fill="#E94235"/>
<line x1="45" y1="14" x2="45" y2="34" stroke="#3C4043"/>
</g>
<defs>
<filter id="filter0_dddd" x="0" y="0" width="168" height="50" filterUnits="userSpaceOnUse" color-interpolation-filters="sRGB">
<feFlood flood-opacity="0" result="BackgroundImageFix"/>
<feColorMatrix in="SourceAlpha" type="matrix" values="0 0 0 0 0 0 0 0 0 0 0 0 0 0 0 0 0 0 127 0"/>
<feOffset dy="-1"/>
<feGaussianBlur stdDeviation="2.5"/>
<feColorMatrix type="matrix" values="0 0 0 0 0.501961 0 0 0 0 0.52549 0 0 0 0 0.545098 0 0 0 0.09 0"/>
<feBlend mode="normal" in2="BackgroundImageFix" result="effect1_dropShadow"/>
<feColorMatrix in="SourceAlpha" type="matrix" values="0 0 0 0 0 0 0 0 0 0 0 0 0 0 0 0 0 0 127 0"/>
<feOffset dy="3"/>
<feGaussianBlur stdDeviation="2.5"/>
<feColorMatrix type="matrix" values="0 0 0 0 0.501961 0 0 0 0 0.52549 0 0 0 0 0.545098 0 0 0 0.06 0"/>
<feBlend mode="normal" in2="effect1_dropShadow" result="effect2_dropShadow"/>
<feColorMatrix in="SourceAlpha" type="matrix" values="0 0 0 0 0 0 0 0 0 0 0 0 0 0 0 0 0 0 127 0"/>
<feOffset dy="1"/>
<feGaussianBlur stdDeviation="1"/>
<feColorMatrix type="matrix" values="0 0 0 0 0.235294 0 0 0 0 0.25098 0 0 0 0 0.262745 0 0 0 0.3 0"/>
<feBlend mode="normal" in2="effect2_dropShadow" result="effect3_dropShadow"/>
<feColorMatrix in="SourceAlpha" type="matrix" values="0 0 0 0 0 0 0 0 0 0 0 0 0 0 0 0 0 0 127 0"/>
<feOffset dy="1"/>
<feGaussianBlur stdDeviation="1.5"/>
<feColorMatrix type="matrix" values="0 0 0 0 0.235294 0 0 0 0 0.25098 0 0 0 0 0.262745 0 0 0 0.15 0"/>
<feBlend mode="normal" in2="effect3_dropShadow" result="effect4_dropShadow"/>
<feBlend mode="normal" in="SourceGraphic" in2="effect4_dropShadow" result="shape"/>
</filter>
</defs>
</svg>
