<?xml version="1.0" encoding="UTF-8" standalone="no"?>
<!-- Created with Inkscape (http://www.inkscape.org/) -->

<svg
   xmlns:dc="http://purl.org/dc/elements/1.1/"
   xmlns:cc="http://creativecommons.org/ns#"
   xmlns:rdf="http://www.w3.org/1999/02/22-rdf-syntax-ns#"
   xmlns:svg="http://www.w3.org/2000/svg"
   xmlns="http://www.w3.org/2000/svg"
   xmlns:sodipodi="http://sodipodi.sourceforge.net/DTD/sodipodi-0.dtd"
   xmlns:inkscape="http://www.inkscape.org/namespaces/inkscape"
   id="svg3336"
   viewBox="0 0 1420 750"
   inkscape:export-filename="/Users/vlad/Desktop/logo2.png"
   inkscape:version="0.91 r13725"
   version="0.0"
   sodipodi:docname="smart-logo.svg"
   width="100%"
   height="100%">
  <metadata
     id="metadata3342">
    <rdf:RDF>
      <cc:Work
         rdf:about="">
        <dc:format>image/svg+xml</dc:format>
        <dc:type
           rdf:resource="http://purl.org/dc/dcmitype/StillImage" />
        <dc:title></dc:title>
      </cc:Work>
    </rdf:RDF>
  </metadata>
  <defs
     id="defs3340" />
  <sodipodi:namedview
     pagecolor="#ffffff"
     bordercolor="#666666"
     borderopacity="1"
     objecttolerance="10"
     gridtolerance="10"
     guidetolerance="10"
     inkscape:pageopacity="1"
     inkscape:pageshadow="2"
     inkscape:window-width="1440"
     inkscape:window-height="823"
     id="namedview3338"
     showgrid="false"
     inkscape:snap-text-baseline="false"
     inkscape:zoom="0.29822936"
     inkscape:cx="367.90487"
     inkscape:cy="924.43003"
     inkscape:window-x="-1"
     inkscape:window-y="0"
     inkscape:window-maximized="0"
     inkscape:current-layer="svg3336">
    <inkscape:grid
       type="xygrid"
       id="grid3368" />
  </sodipodi:namedview>
  <g
     id="g3346"
     transform="translate(4,-25.27181)">
    <path
       style="fill:#68aed5"
       d="m 532.05311,760.13837 c 78.38106,-128.744 123.96852,-203.10587 124.30158,-202.75962 0.22943,0.23856 11.02937,17.87125 23.99987,39.18375 12.9705,21.3125 41.9945,68.98437 64.49775,105.9375 22.50332,36.95312 41.04025,67.39844 41.19325,67.65625 0.153,0.25781 -13.21562,0.46875 -29.70812,0.46875 l -29.98631,0 -34.851,-57.8125 C 672.33206,681.01562 656.46475,655 656.2395,655 c -0.22531,0 -16.55125,26.01562 -36.28001,57.8125 l -35.87042,57.8125 -29.21018,0 -29.21018,0 z"
       id="path3360"
       inkscape:connector-curvature="0"
       sodipodi:nodetypes="scsssscssscccs" />
    <path
       style="fill:#f1b42a"
       d="m 507.96404,490.85307 c -2.4043,-3.82765 -26.66729,-43.9729 -27.37069,-45.28721 -0.52855,-0.9876 2.69004,-6.68244 19.30464,-34.15678 10.96642,-18.13437 26.85036,-44.43132 35.29764,-58.43767 l 15.35869,-25.4661 -71.00776,-0.1589 -71.00775,-0.15891 -13.94477,-22.8125 c -7.66962,-12.54688 -13.95023,-23.02344 -13.9569,-23.28125 -0.007,-0.25781 57.95545,-0.46875 128.80473,-0.46875 102.79691,0 128.75625,0.15781 128.51669,0.78125 -0.16506,0.42969 -23.15142,38.46875 -51.08078,84.53125 -27.92937,46.0625 -56.55704,93.3125 -63.61703,105 -7.06,11.6875 -13.04854,21.49326 -13.30787,21.79057 -0.25934,0.29732 -1.15432,-0.54643 -1.98884,-1.875 z"
       id="path3358"
       inkscape:connector-curvature="0"
       sodipodi:nodetypes="sssscccscscssss" />
    <path
       style="fill:#89bf44"
       d="M 742.4565,394.2333 C 709.33644,339.48311 680.34037,291.59375 678.02075,287.8125 l -4.21756,-6.875 128.82612,-0.15774 c 70.85432,-0.0868 128.9315,-0.0523 129.06044,0.0767 0.12894,0.12893 -6.31569,10.67461 -14.32144,23.43486 l -14.55581,23.20045 -70.42125,0.004 -70.42125,0.004 34.71875,58.90625 c 19.09531,32.39843 34.71844,59.1875 34.71806,59.53125 -3.7e-4,0.34375 -4.72037,8.35937 -10.48881,17.8125 -5.7685,9.45312 -12.23312,20.07685 -14.36575,23.6083 l -3.87756,6.42079 -60.21819,-99.54579 z"
       id="path3356"
       inkscape:connector-curvature="0" />
    <path
       style="fill:#e77d26"
       d="m 674.49894,259.84375 c 0.491,-0.77344 29.39137,-48.44531 64.22306,-105.9375 C 773.55369,96.414062 802.25319,49.375 802.49875,49.375 c 0.9215,0 29.45413,47.645494 29.09425,48.583325 -0.33606,0.875844 -17.68063,29.572085 -55.254,91.416675 l -14.99875,24.6875 71.01956,0.3125 71.01963,0.3125 9.91587,16.25 c 5.45375,8.9375 11.8575,19.41406 14.23069,23.28125 l 4.31475,7.03125 -129.11725,0 -129.11725,0 z"
       id="path3354"
       inkscape:connector-curvature="0"
       sodipodi:nodetypes="csscscccsccccc" />
    <path
       style="fill:#e24a31"
       d="m 381.38629,259.76828 c 0.44067,-0.81494 6.98871,-11.35791 14.55121,-23.4288 l 13.75,-21.9471 70.51972,-0.009 70.51973,-0.009 -1.22401,-2.03125 C 533.42686,185.66554 481.25,97.398675 481.25,96.881219 c 0,-0.623894 28.30626,-47.57067 28.51813,-47.298183 0.34786,0.44737 127.09812,209.232824 127.66581,210.293574 l 0.73506,1.37339 -128.79197,0 -128.79195,0 0.80121,-1.48172 z"
       id="path3352"
       inkscape:connector-curvature="0" />
    <path
       style="fill:#676868"
       d="M 845.4275,770.84419 C 845.19238,770.60906 845,733.89431 845,689.25581 l 0,-81.16084 72.96875,0.17127 72.96875,0.17126 4.80731,1.70209 c 9.25839,3.27808 13.51309,7.17623 16.91759,15.49966 1.3656,3.33881 1.4047,4.09869 1.587,30.81412 0.1632,23.91463 0.057,27.83863 -0.8387,30.91869 -2.9689,10.21275 -9.3034,15.82938 -21.31814,18.90219 -3.92356,1.0035 -6.15625,1.09912 -18.17031,0.77837 -8.65337,-0.23106 -14.10744,-0.13612 -14.8115,0.25788 -0.94462,0.52869 4.29813,5.31781 34.41869,31.44013 19.54316,16.94906 35.62396,31.19512 35.73516,31.65793 0.1662,0.69232 -3.3781,0.83856 -20,0.82506 l -20.2021,-0.0163 -5,-4.79737 c -2.75,-2.63856 -15.125,-14.50713 -27.5,-26.37456 -12.375,-11.86744 -25.12012,-24.11532 -28.32244,-27.2175 l -5.82243,-5.64038 -21.67757,-0.18237 c -11.92268,-0.10031 -22.30781,-0.0256 -23.07806,0.16668 l -1.40056,0.34913 -0.16194,31.70831 -0.162,31.70825 -15.04125,0.16713 c -8.27269,0.0919 -15.23362,-0.0256 -15.46875,-0.26044 z M 977.10112,682.6585 c 2.52969,-1.35569 3.54307,-2.38438 4.77388,-4.846 1.54425,-3.0885 1.5625,-3.31138 1.5625,-19.07919 0,-15.856 -0.01,-15.97331 -1.58869,-19.0625 -2.06718,-4.04456 -6.232,-6.935 -10.75912,-7.467 -1.80244,-0.21175 -23.80844,-0.30206 -48.90219,-0.20068 l -45.625,0.18437 0,25.9375 0,25.9375 45,0.35406 c 24.75,0.19469 46.64863,0.26606 48.66362,0.1585 2.521,-0.1345 4.66525,-0.73225 6.875,-1.91656 z m 167.12038,19.38369 -0.159,-69.22969 -38.8753,-0.3125 c -26.4669,-0.21275 -39.0894,-0.52669 -39.5461,-0.98362 -0.4412,-0.44132 -0.6122,-4.50701 -0.4997,-11.875 l 0.1711,-11.20388 94.6875,0 94.6875,0 0.1704,11.41634 0.1704,11.41635 -1.6174,0.61494 c -0.9962,0.37874 -16.2405,0.61487 -39.6988,0.61487 l -38.0817,0 -0.1589,69.21875 -0.159,69.21875 -15.466,0.16719 -15.4661,0.16712 -0.1589,-69.22962 z M 26.289883,768.36719 C 16.126254,766.52425 9.613035,763.34094 6.4121425,758.65194 2.2225402,752.51462 0.03212788,742.11731 0.01145003,728.2695 L 0,720.60156 l 14.21875,0.16794 14.21875,0.168 0.169746,12.03125 0.169745,12.03125 63.044634,0 c 56.911905,0 63.081545,-0.0962 63.424005,-0.98862 0.20866,-0.54375 0.37937,-10.6125 0.37937,-22.375 0,-15.8005 -0.19589,-21.58225 -0.75,-22.13638 -0.57273,-0.57275 -14.68641,-0.75 -59.71385,-0.75 -50.805856,0 -59.630363,-0.13419 -63.781249,-0.97006 C 15.611676,694.60481 10.525148,689.28763 7.7943963,673.125 6.590965,666.00219 6.5714681,640.5545 7.7635088,632.8125 10.515346,614.94011 17.512735,608.90064 37.764798,606.91828 41.969642,606.50669 63.697513,606.25 94.331131,606.25 c 52.993419,0 61.438989,0.37734 69.156589,3.08986 13.03224,4.58047 17.55102,12.9084 17.82329,32.84764 l 0.12801,9.375 -14.1422,0.16794 -14.1422,0.16794 -0.17106,-10.79294 -0.17106,-10.79294 -58.057044,-0.1595 c -42.377555,-0.11644 -58.286386,0.0306 -58.906248,0.54525 -1.164362,0.96637 -1.258511,40.51744 -0.09921,41.67675 0.572369,0.57237 14.449784,0.75256 58.59375,0.76094 58.720792,0.0113 62.995262,0.15525 70.349512,2.37325 2.84578,0.85825 8.02416,3.60356 10.11345,5.36156 2.40533,2.02394 5.4447,7.776 6.71786,12.71369 2.88107,11.1735 2.87089,43.42206 -0.0174,55.16556 -1.23953,5.03975 -4.24167,10.81031 -6.70043,12.87925 -4.29526,3.61419 -9.47396,5.46512 -19.18171,6.85562 -8.5773,1.22863 -122.482011,1.12494 -129.335115,-0.11768 z M 256.875,687.8125 l 0,-81.5625 13.07966,0 13.07965,0 11.16058,14.21875 c 6.13832,7.82031 24.75719,31.58594 41.37526,52.8125 16.61807,21.22656 30.38965,38.58656 30.60351,38.57781 0.21387,-0.009 17.51295,-23.77437 38.44242,-52.8125 l 38.05358,-52.79656 14.60267,0 14.60267,0 0,81.5625 0,81.5625 -14.6875,0 -14.6875,0 0.0183,-55.15625 c 0.0162,-49.07119 0.31656,-63.76338 1.50443,-73.59375 l 0.33986,-2.8125 -1.04908,2.5 c -0.577,1.375 -2.75387,5.82919 -4.83751,9.89825 -3.32206,6.48744 -7.82782,12.70306 -36.60093,50.49037 l -32.8125,43.09219 -4.14608,-0.17794 -4.14607,-0.17787 -33.60315,-42.1875 c -18.48172,-23.20313 -34.58976,-43.71944 -35.79563,-45.59188 -1.88747,-2.93075 -5.02983,-9.28468 -8.292,-16.76662 -0.77853,-1.78563 -0.86817,6.388 -0.7043,64.21875 l 0.18778,66.26475 -12.84403,0 -12.84402,0 0,-81.5625 z M 1345,679.23206 c -23.9819,-1.83943 -44.7827,-17.80887 -52.1314,-40.02281 -2.905,-8.78169 -2.964,-24.09132 -0.1252,-32.51758 3.4841,-10.34174 8.2864,-17.85856 15.7739,-24.69026 14.0132,-12.78583 33.5088,-18.534 52.4202,-15.45581 26.8952,4.3777 47.0321,24.6941 49.6324,50.07474 2.9804,29.09029 -16.2186,54.83079 -45.8824,61.51547 -5.0012,1.12707 -13.2778,1.58788 -19.6875,1.09625 z m 18.1627,-8.9295 c 8.7354,-2.30437 15.7875,-6.21518 22.2126,-12.31843 10.0015,-9.50044 14.8084,-21.16163 14.756,-35.79663 -0.077,-21.34152 -12.4529,-38.20416 -33.355,-45.44561 -5.6251,-1.94876 -6.2048,-2.02338 -15.8388,-2.0386 -9.3316,-0.0148 -10.3518,0.10204 -15.2643,1.74718 -7.0536,2.36222 -10.7471,4.27346 -16.0823,8.32217 -10.8668,8.24647 -17.4832,20.74613 -18.1853,34.35558 -0.6173,11.96428 1.8905,21.74266 7.9393,30.95647 7.2564,11.05331 20.4385,19.28519 33.8762,21.15475 5.0296,0.69975 15.6244,0.202 19.9416,-0.93688 z M 1327.5,622.7773 l 0,-33.4727 17.9688,0.19321 c 16.8455,0.18113 18.2018,0.28102 21.6978,1.59798 4.4033,1.6587 7.4437,3.96806 10.0209,7.61129 1.8131,2.56306 1.875,2.88102 1.875,9.62801 0,6.5198 -0.1104,7.14721 -1.6842,9.56649 -2.6807,4.12101 -8.399,7.53311 -13.671,8.15748 -1.6953,0.20075 -3.0823,0.5465 -3.0823,0.76825 0,0.22181 1.3471,2.36231 2.9936,4.75669 10.3475,15.04769 16.3814,24.00231 16.3814,24.31081 0,0.19538 -2.4852,0.35519 -5.5228,0.35519 l -5.5228,0 -9.5659,-14.375 -9.5659,-14.375 -5.8488,0 -5.8488,0 0,14.375 0,14.375 -5.3125,0 -5.3125,0 0,-33.4727 z m 35.1771,-5.2045 c 3.7352,-1.81724 5.4489,-4.83184 5.4456,-9.57915 0,-4.41092 -1.6515,-7.05441 -5.4831,-8.79371 -2.639,-1.19788 -4.0791,-1.34253 -13.5771,-1.36373 l -10.625,-0.0237 -0.1728,9.97491 c -0.095,5.4862 -0.021,10.37014 0.1642,10.85318 0.2763,0.71982 2.2244,0.83394 10.7978,0.63252 9.3875,-0.22055 10.7675,-0.39501 13.4504,-1.70032 z"
       id="path3350"
       inkscape:connector-curvature="0" />
    <path
       style="fill:#722772"
       d="M 653.68694,246.71875 C 587.91266,138.63719 526.875,38.099102 526.875,37.840723 526.875,37.653326 540.06973,37.5 556.19662,37.5 l 29.32162,0 34.85717,57.830138 c 27.66428,45.896722 35.01303,57.665282 35.61247,57.031252 0.41543,-0.43939 16.70131,-26.46295 36.19087,-57.83014 L 727.61437,37.5 l 28.72825,0 28.72826,0 -1.44169,2.397874 C 769.43125,63.512625 655.85931,249.375 655.62731,249.375 c -0.17812,0 -1.05131,-1.19531 -1.94037,-2.65625 z"
       id="path3348"
       inkscape:connector-curvature="0" />
  </g>
</svg>
